Coordinates
version=1
nRows=7
nColumns=46
inDegrees=yes

Units are S.I. units (second, meters, Newtons, ...)
Angles are in degrees.

endheader
time	pelvis_tilt	pelvis_list	pelvis_rotation	pelvis_tx	pelvis_ty	pelvis_tz	bb_angle	bb_tx	bb_ty	bb_tz	hip_flexion_r	hip_adduction_r	hip_rotation_r	knee_angle_r	knee_angle_r_beta	ankle_angle_r	subtalar_angle_r	mtp_angle_r	crank_angle_r	hip_flexion_l	hip_adduction_l	hip_rotation_l	knee_angle_l	knee_angle_l_beta	ankle_angle_l	subtalar_angle_l	mtp_angle_l	crank_angle_l	lumbar_extension	lumbar_bending	lumbar_rotation	arm_flex_r	arm_add_r	arm_rot_r	elbow_flex_r	pro_sup_r	wrist_flex_r	wrist_dev_r	arm_flex_l	arm_add_l	arm_rot_l	elbow_flex_l	pro_sup_l	wrist_flex_l	wrist_dev_l
      5.00500000	    -21.00726735	      9.84383193	     -0.30350833	      0.09056155	      1.00254769	     -0.18475095	      0.00000000	      0.50000000	      0.00000000	      0.25000000	     50.37734193	    -12.13515222	     -1.64703658	     31.43547594	      0.54865256	     -9.13261576	     -0.09922653	      0.00000000	      0.00000000	     95.11607148	     -1.58803999	      3.18354968	    116.08999632	      2.02615266	    -16.59696088	     -6.61429805	      0.00000000	      0.00000000	    -50.97260711	    -11.83759710	     -4.73264979	     83.64812766	    -21.22304177	     33.88944853	     53.58027297	     45.29475482	      0.00000000	      0.00000000	     89.28492097	     -3.00240123	     30.65938268	     47.64590285	     40.90440639	      0.00000000	      0.00000000
      5.01000000	    -20.89429840	     10.12137285	      0.17007060	      0.09143563	      1.00491325	     -0.18439586	      0.00000000	      0.50000000	      0.00000000	      0.25000000	     48.92585891	    -12.88716275	     -2.53087866	     30.39827304	      0.53054995	    -10.10248060	      0.63003412	      0.00000000	      0.00000000	     96.37858974	     -0.98621667	      3.04112314	    116.15289764	      2.02725050	    -17.71121941	     -6.68377687	      0.00000000	      0.00000000	    -51.33846969	    -12.10689332	     -5.24718831	     83.50239824	    -21.46698881	     33.84252894	     53.19320818	     45.24766782	      0.00000000	      0.00000000	     89.30376544	     -2.65619783	     30.75526731	     47.73003961	     40.86380385	      0.00000000	      0.00000000
      5.01500000	    -20.86903210	     10.30090421	      0.54757963	      0.09207762	      1.00705050	     -0.18385692	      0.00000000	      0.50000000	      0.00000000	      0.25000000	     47.67273101	    -13.42096030	     -3.32536479	     29.57868689	      0.51624547	    -10.83632931	      1.18435999	      0.00000000	      0.00000000	     97.76557144	     -0.61313884	      2.96581870	    116.13510173	      2.02693990	    -18.86344071	     -6.63625402	      0.00000000	      0.00000000	    -51.62483995	    -12.34543830	     -5.68437483	     83.38014194	    -21.56101521	     33.81194580	     52.81534283	     45.19915688	      0.00000000	      0.00000000	     89.33122150	     -2.36908664	     30.79033424	     47.85203904	     40.83293402	      0.00000000	      0.00000000
      5.02000000	    -20.75145552	     10.31163762	      1.03554935	      0.09268288	      1.00928503	     -0.18357250	      0.00000000	      0.50000000	      0.00000000	      0.25000000	     46.34228509	    -13.92845273	     -4.43213547	     28.94665109	      0.50521437	    -11.46662292	      1.71073095	      0.00000000	      0.00000000	     98.94356647	     -0.04645798	      2.97894606	    116.05860670	      2.02560481	    -19.88107251	     -7.14935676	      0.00000000	      0.00000000	    -51.97714953	    -12.29036200	     -6.13202722	     83.53867304	    -21.23873820	     33.63893341	     51.82896002	     45.07478235	      0.00000000	      0.00000000	     89.35215606	     -2.17637371	     30.50681434	     48.10283108	     40.64689563	      0.00000000	      0.00000000
      5.02500000	    -20.83785208	     10.38395865	      1.33389195	      0.09280134	      1.01116358	     -0.18288029	      0.00000000	      0.50000000	      0.00000000	      0.25000000	     45.43552133	    -14.21560671	     -5.04855602	     28.52800003	      0.49790753	    -12.07678103	      1.87107981	      0.00000000	      0.00000000	    100.24426274	      0.22362654	      2.94719790	    115.86709499	      2.02226230	    -20.55092322	     -7.12741178	      0.00000000	      0.00000000	    -52.07976180	    -12.34483733	     -6.90724284	     83.91190890	    -19.71695582	     33.10512214	     49.64476390	     44.85431497	      0.00000000	      0.00000000	     89.32962469	     -2.69199542	     30.24836598	     48.78590906	     40.11768239	      0.00000000	      0.00000000
      5.03000000	    -21.07885921	     10.37339637	      1.57341915	      0.09278071	      1.01258375	     -0.18255410	      0.00000000	      0.50000000	      0.00000000	      0.25000000	     44.81380359	    -14.38965065	     -5.56359291	     28.32718382	      0.49440263	    -12.51393281	      1.98167778	      0.00000000	      0.00000000	    101.65891403	      0.42265296	      3.01481014	    115.61416890	      2.01784791	    -21.08507367	     -6.83359442	      0.00000000	      0.00000000	    -52.05724333	    -12.49694282	     -7.08742341	     83.82329889	    -19.75986022	     33.00955049	     49.40686593	     44.82144383	      0.00000000	      0.00000000	     89.34582354	     -2.48068848	     30.32525957	     48.96351814	     40.11204330	      0.00000000	      0.00000000
      5.03500000	    -21.36458669	     10.24997170	      1.91531306	      0.09274146	      1.01388851	     -0.18226558	      0.00000000	      0.50000000	      0.00000000	      0.25000000	     44.31621540	    -14.52565687	     -6.19436339	     28.37898398	      0.49530671	    -12.89705326	      1.85551187	      0.00000000	      0.00000000	    103.02045296	      0.73163987	      3.16142467	    115.27179174	      2.01187230	    -21.49712028	     -6.53794808	      0.00000000	      0.00000000	    -51.96406213	    -12.52716626	     -7.23994224	     83.73015962	    -19.67778835	     32.70962116	     48.95847106	     44.74373559	      0.00000000	      0.00000000	     89.34135174	     -2.31556030	     30.40486524	     49.19447113	     40.08565258	      0.00000000	      0.00000000
